<svg xmlns="http://www.w3.org/2000/svg" viewBox="0 0 21.406 21.406"><g fill="#010002"><circle cx="10.72" cy="10.752" r=".256"/><path d="M4.928 17.932c.363-1.104 1.362-1.771 2.226-1.486.865.283 1.272 1.414.909 2.519-.363 1.104-1.362 1.772-2.226 1.487-.352-.114-.636-.371-.823-.742-.258-.513-.289-1.16-.086-1.778zm6.894-7.108c.325-.789 1.928-4.603 2.669-7.272.844-3.041.672-3.523.404-3.552L9.619 10.824c-1.094 2.341-.626 2.484-1.768 3.422-.725.597-1.775 1.165-2.303 1.572-.65.365-1.195 1.009-1.467 1.834-.277.842-.227 1.738.137 2.457.291.578.768 1 1.34 1.188 1.331.437 2.731-.522 3.351-2.056.396-.98.154-3.68.41-4.633.172-.644.82-1.454 1.401-2.143.395-.427.777-.852 1.102-1.641z"/><path d="M16.392 19.708c-.187.371-.471.628-.822.742-.864.284-1.862-.384-2.228-1.487-.362-1.104.045-2.234.909-2.52.864-.284 1.863.384 2.228 1.488.203.619.173 1.266-.087 1.777zm-5.705-7.24c.58.688 1.229 1.499 1.4 2.144.255.953.013 3.65.409 4.631.62 1.533 2.021 2.494 3.352 2.057.572-.188 1.05-.609 1.341-1.188.363-.721.414-1.616.138-2.457-.272-.826-.817-1.471-1.466-1.834-.528-.408-1.579-.978-2.305-1.573-1.142-.938-.674-1.081-1.768-3.422L6.512 0c-.268.029-.439.511.404 3.552.741 2.67 2.344 6.483 2.669 7.272s.707 1.214 1.102 1.644z"/></g></svg>