<svg xmlns="http://www.w3.org/2000/svg" width="500" height="500"><g transform="translate(-4.361 -560.033)" fill="#2b0000"><path d="M232.84 614.967A154.048 154.048 0 0078.792 769.014 154.048 154.048 0 00232.84 923.062a154.048 154.048 0 00154.048-154.048A154.048 154.048 0 00232.84 614.967zm0 26.776a129.958 127.27 0 01129.958 127.27A129.958 127.27 0 01232.84 896.285a129.958 127.27 0 01-129.958-127.27 129.958 127.27 0 01129.958-127.27z"/><rect ry="18.083" rx="33.249" transform="matrix(.65317 .75721 -.6069 .79479 0 0)" y="319.554" x="794.878" height="36.167" width="173.027"/></g></svg>